/* XPM */
static char * mini-camera_xpm[] = {
"20 14 4 1",
" 	c None",
".	c black",
"X	c white",
"o	c gray50",
"       ........     ",
"      .XXXXXXXX.    ",
" .....Xo.....oX.... ",
".XXXXX.........XXXX.",
"........ooooo.......",
".Xooo..oXXXooo..ooo.",
".Xooo..oXooooo..ooo.",
".Xooo..oXooooo..ooo.",
".Xooo..ooooooo..ooo.",
".Xooo..ooooooo..ooo.",
".Xoooo..ooooo..oooo.",
".Xoooo.........oooo.",
".Xoooooo.....oooooo.",
" .................. ",
};
