/* XPM */
static char * file_xpm[] = {
"19 19 4 1",
" 	c white",
".	c gray50",
"X	c gray30",
"o	c none",
"                   ",
" .................X",
" .................X",
" .XX...........XX.X",
" .XX...........XX.X",
" .................X",
" .................X",
" .................X",
" .................X",
" .................X",
" .................X",
" .................X",
" .................X",
" ....         ....X",
" .... ....    ....X",
" .... ....    ....X",
" .... ....    ....X",
"oX... ....    ....X",
"ooXXXXXXXXXXXXXXXXX"};
