/* XPM */
static char * free_xpm[] =
{
/* width height ncolors chars_per_pixel */
"16 16 2 1",
/* colors */
". c None",
"r c #FF0000",
/* pixels */
"................",
"................",
"......r.........",
"......r.........",
".......r........",
".......r........",
".......r........",
"........r.......",
"........r.......",
"........r.......",
".....r...r.rrrrr",
"....r....r......",
"...r.....r......",
"..r.......r.....",
".r........r.....",
"r..............."
};
