/* XPM */
static char * gamma_xpm[] =
{
/* width height ncolors chars_per_pixel */
"16 16 10 1",
/* colors */
". c None",
"B c #000000",
"& c #171717",
"# c #2F2F2F",
"X c #464646",
"= c #5E5E5E",
"/ c #757575",
"+ c #8C8C8C",
"- c #A4A4A4",
"` c #BBBBBB",
/* pixels */
"................",
"................",
"................",
"....B=..+B+.....",
"....X&`./&-.....",
"...../+.XX......",
"......B.B+......",
"......X.X.......",
"......X&+.......",
"......-B........",
"....../=........",
"......#B........",
"......BB........",
"......B#........",
"................",
"................"
};
