/* XPM */
const char *geometry_xpm[] =
{
/* width height num_colors chars_per_pixel */
"    15    15        2            1",
/* colors */
". c black",
"  none",
/* pixels */
"..  ..  ..  .. ",
"               ",
"              .",
".             .",
".              ",
"               ",
"              .",
".             .",
".              ",
"               ",
"              .",
".             .",
".              ",
"               ",
" ..  ..  ..  ..",
};
