/* XPM */
static char * linear_xpm[] =
{
/* width height ncolors chars_per_pixel */
"16 16 5 1",
/* colors */
". c None", /* transparent */
"B c #000000",
"' c #7F7F7F",
"+ c #824141",
"r c #FF0000",
/* pixels */
"..............BB",
"..............+B",
"..............r.",
".............r..",
".............r..",
"....'B'.....r...",
"....BBB.....r...",
"....+B+....r....",
"....r.r....r....",
"...r...r..r.....",
"...r...r..r.....",
"..r.....rB+.....",
"..r.....BBB.....",
".r......'B'.....",
"B+..............",
"BB.............."
};
