/* XPM */
const char *pipette_black_xpm[] =
{
/* width height num_colors chars_per_pixel */
"    19    19        3            1",
/* colors */
". c black",
"  none",
"a c white",
/* pixels */
"                   ",
"             ....  ",
"            ...... ",
"            ...... ",
"         ......... ",
"           ......  ",
"          .aaa..   ",
"         .aaaa..   ",
"        .aaaa. .   ",
"       ......  .   ",
"      ......       ",
"     ......        ",
"    ......         ",
"   ......          ",
"  ......           ",
" ......            ",
"......             ",
".....              ",
" ...               ",
};
