/* XPM */
const char *pipette_gray_xpm[] =
{
/* width height num_colors chars_per_pixel */
"    19    19        4            1",
/* colors */
". c black",
"  none",
"a c white",
"X c gray50",
/* pixels */
"                   ",
"             ....  ",
"            ...... ",
"            ...... ",
"         ......... ",
"           ......  ",
"          .aaa..   ",
"         .aaaa..   ",
"        .aaaa. .   ",
"       .XXXX.  .   ",
"      .XXXX.       ",
"     .XXXX.        ",
"    .XXXX.         ",
"   .XXXX.          ",
"  .XXXX.           ",
" .XXXX.            ",
".XXXX.             ",
".XXX.              ",
" ...               ",
};
