/* XPM */
static char * eject_xpm[] = {
"19 19 4 1",
" 	c none",
"X	c gray30",
"a	c white",
"o	c black",
"aaaaaaaaaaaaaaaaaaa",
"a                 X",
"a                 X",
"a                 X",
"a                 X",
"a  XXXXXXXXXXXXX  X",
"a  Xoooooooooooa  X",
"a  Xoooooooooooa  X",
"a  Xoooooooooooa  X",
"a  Xoooooooooooa  X",
"a  Xoooooooooooa  X",
"a  Xoooooooooooa  X",
"a  Xoooooooooooa  X",
"a  Xaaaaaaaaaaaa  X",
"a                 X",
"a                 X",
"a                 X",
"a                 X",
"aXXXXXXXXXXXXXXXXXX"};
