/* XPM */
static char * reset_xpm[] =
{
/* width height ncolors chars_per_pixel */
"16 16 4 1",
/* colors */
". c None",
"B c #000000",
"+ c #824141",
"r c #FF0000",
/* pixels */
"..............BB",
"..............+B",
".............r..",
"............r...",
"...........r....",
"..........r.....",
".........r......",
"........r.......",
".......r........",
"......r.........",
".....r..........",
"....r...........",
"...r............",
"..r.............",
"B+..............",
"BB.............."
};
