/* XPM */
const char *resolution_xpm[] =
{
/* width height num_colors chars_per_pixel */
"    19    19        2            1",
/* colors */
". c black",
"  none",
/* pixels */
"                   ",
"  ...     ..       ",
" .....   ....   .  ",
"....... ...... ... ",
".......  ....   .  ",
".......   ..       ",
" .....             ",
"  ...     ..    .  ",
"         ....  ... ",
"  ..     ....   .  ",
" ....     ..       ",
"......             ",
" ....     ..    .  ",
"  ..     ....      ",
"          ..    .  ",
"  ..               ",
" ....     ..    .  ",
"  ..      ..       ",
"                   ",
};
