/* XPM */
static char * rotate_ccw90_xpm[] = {
"19 19 2 1",
" 	c black",
".	none",
"  .................",
"...... ............",
"  ...  ............",
"  ..     ..........",
"  .        ........",
"  ..         ......",
".....  ..     .....",
"  .... ....    ....",
"  ..........    ...",
"  ...........   ...",
"  ...........    ..",
"..............   ..",
"  ............    .",
"  .............   .",
"  .............   .",
"  .............   .",
"...................",
"                   ",
"                   "};
