/* XPM */
static char * rotate_cw90_xpm[] = {
"19 19 2 1",
" 	none",
".	c black",
"                 ..",
"            .      ",
"            ..   ..",
"          .....  ..",
"        ........ ..",
"      .........  ..",
"     .....  ..     ",
"    ....    .    ..",
"   ....          ..",
"   ...           ..",
"  ....           ..",
"  ...              ",
" ....            ..",
" ...             ..",
" ...             ..",
" ...             ..",
"                   ",
"...................",
"..................."};
