/* XPM */
static char * set_horizont_xpm[] = {
"19 19 5 1",
" 	c gray80",
".	c black",
"X	none",
"o	c gray40",
"b	c gray20",
"                   ",
"       .....       ",
"       .X.X.       ",
"       .X.X.       ",
"      .......      ",
"      .X.X.X.      ",
"      .X.X.X.      ",
"      .X.X.X.      ",
"      .......      ",
"      .X.X.X.      ",
"      .X.X.X.      ",
"      .X.X.X.      ",
"      .......      ",
"      .X.X.X. ooooo",
"     o.X.X.X.oooooo",
"oooooo.X.X.X.oooooo",
"oooobbbbbbbbbbboooo",
"oooobbbbbbbbbbboooo",
"oooobbbbbbbbbbboooo"};
