/* XPM */
static char * spline_xpm[] =
{
/* width height ncolors chars_per_pixel */
"16 16 4 1",
/* colors */
". c None",
"B c #000000",
"+ c #BC2D2D",
"r c #FF0000",
/* pixels */
"..............BB",
".........rrrrrrB",
".......rr.......",
".....B+.........",
"....BBB.........",
"....+B..........",
"....r...........",
"...r............",
"...r............",
"..r.............",
"..r.............",
".r..............",
".r..............",
".r..............",
"B+..............",
"BB.............."
};
