/* XPM */
static char * eject_xpm[] = {
"20 20 4 1",
" 	c none",
"X	c gray30",
"a	c white",
"o	c black",
"aaaaaaaaaaaaaaaaaaaa",
"a        Xa        X",
"a        Xa        X",
"a XXXXXX Xa XXXXXX X",
"a Xooooa Xa Xooooa X",
"a Xooooa Xa Xooooa X",
"a Xaaaaa Xa Xaaaaa X",
"a        Xa        X",
"a        Xa        X",
"aXXXXXXXXXaXXXXXXXXX",
"aaaaaaaaaaaaaaaaaaaa",
"a        Xa        X",
"a        Xa        X",
"a XXXXXX Xa XXXXXX X",
"a Xooooa Xa Xooooa X",
"a Xooooa Xa Xooooa X",
"a Xaaaaa Xa Xaaaaa X",
"a        Xa        X",
"a        Xa        X",
"aXXXXXXXXXaXXXXXXXXX"};
