/* XPM */
static char * undo_rotate_xpm[] = {
"19 19 2 1",
" 	none",
".	c #000000000000",
"                   ",
"                   ",
"       .....       ",
"     .........     ",
"    ...........    ",
"   ....     ....   ",
"   ...       ...   ",
"  ...         ...  ",
"  ...         ...  ",
"  ...         ...  ",
"  ...  .      ...  ",
"  ... ..      ...  ",
"   .....     ...   ",
"   .....    ....   ",
"   .....  .....    ",
"  ......  ....     ",
" .......  ..       ",
"                   ",
"                   "};
