/* XPM */
const char *zoom_in_xpm[] =
{
/* width height num_colors chars_per_pixel */
"    19    19        3            1",
/* colors */
"  none",
". c black",
"a c white",
/* pixels */
"...................",
".aaaaaaaaa.aaaaaaa.",
"...................",
".         .       .",
".         .       .",
".         .       .",
".         .       .",
".         .       .",
".         .       .",
"...........       .",
".                 .",
".           .     .",
".          ...  . .",
".           ..... .",
".            .... .",
".            .... .",
".           ..... .",
".                 .",
"...................",
};
