/* XPM */
const char *zoom_in_xpm[] =
{
/* width height num_colors chars_per_pixel */
"    19    19        4            1",
/* colors */
"  c none",
"X c gray30",
"q c black",
"a c white",
/* pixels */
"  q             q  ",
" qqq           qqq ",
"qqqqq         qqqqq",
" qqqqq       qqqqq ",
"  qqqqq     qqqqq  ",
"   qqqqq   qqqqq   ",
"    qqqqq qqqqq    ",
"     qqqqqqqqq     ",
"      qqqqqqq      ",
"       qqqqq       ",
"      qqqqqqq      ",
"     qqqqqqqqq     ",
"    qqqqq qqqqq    ",
"   qqqqq   qqqqq   ",
"  qqqqq     qqqqq  ",
" qqqqq       qqqqq ",
"qqqqq         qqqqq",
" qqq           qqq ",
"  q             q  ",
};
